<svg enable-background="new 0 0 432 432" height="432" viewBox="0 0 432 432" width="432" xmlns="http://www.w3.org/2000/svg"><path d="m346.387 362.836c1.738 5.211 2.828 9.337 3.26 12.374.434 3.045-.146 5.319-1.738 6.851-1.598 1.514-4.42 2.453-8.471 2.814-4.053.358-9.633.546-16.723.546-7.383 0-13.137-.108-17.266-.329-4.123-.217-7.279-.648-9.447-1.301-2.18-.646-3.695-1.551-4.564-2.717-.869-1.151-1.594-2.678-2.17-4.553l-18.893-56.47h-105.552l-17.81 54.943c-.581 2.032-1.342 3.728-2.276 5.102-.948 1.383-2.472 2.464-4.569 3.265-2.1.785-5.068 1.332-8.901 1.619-3.839.294-8.875.44-15.096.44-6.655 0-11.873-.218-15.636-.654-3.771-.427-6.376-1.48-7.818-3.144-1.447-1.67-1.953-4.02-1.521-7.064.435-3.041 1.521-7.082 3.257-12.16l86.658-249.323c.869-2.467 1.88-4.46 3.042-5.977 1.155-1.526 2.999-2.673 5.536-3.479 2.526-.791 6.045-1.301 10.529-1.521 4.487-.217 10.426-.323 17.815-.323 8.535 0 15.342.106 20.414.323 5.066.22 9.014.731 11.836 1.521 2.824.807 4.852 2.002 6.084 3.585 1.227 1.603 2.277 3.762 3.146 6.517zm-129.006-206.112h-.221l-39.744 119.454h79.707z"/><path d="m249.289 276.178c2.031-1.731 4.064-3.467 6.092-5.234l-7.703-23.155c-.746.674-1.479 1.347-2.23 2.021-10.297 9.236-20.566 18.045-30.682 26.369h34.523z" fill="#00bdeb"/><path d="m94.453 362.398 3.607-10.377c-12.732 4.635-22.047 5.404-26.641 1.52-16.592-14.031 34.415-83.211 113.935-154.527 79.511-71.313 157.425-117.762 174.019-103.726 13.1 11.072-15.939 56.512-67.848 110.232l8.25 23.651c68.354-69.676 104.094-134.626 81.508-153.713-26.213-22.164-121.074 25.894-211.864 107.328-90.798 81.429-143.155 165.403-116.941 187.562 7.704 6.512 21.365 6.92 39.074 2.242.556-2.754 1.51-6.125 2.901-10.192z" fill="#00bdeb"/><path d="m192.618 320.052h-27.795l-7.349 22.669c11.301-6.673 23.08-14.274 35.144-22.669z" fill="#00bdeb"/><g fill="#0094cc"><path d="m92.198 369.813c-8.302 2.315-15.767 3.546-22.18 3.546-7.386 0-13.09-1.658-16.959-4.928-3.917-3.31-5.949-8.319-6.047-14.89-.505-34.471 50.089-104.234 123.031-169.651 73.664-66.073 152.732-112.218 192.277-112.218 7.385 0 13.09 1.658 16.957 4.928 3.918 3.312 5.955 8.322 6.049 14.896.42 28.373-33.795 80.651-86.578 134.736l1.463 4.2c54.273-55.388 89.557-109.446 89.123-138.994-.117-7.784-2.629-13.805-7.471-17.896-4.609-3.898-11.184-5.874-19.543-5.874-40.447 0-120.615 46.566-194.953 113.24-73.741 66.133-124.881 137.147-124.359 172.692.114 7.781 2.624 13.801 7.465 17.891 4.613 3.896 11.187 5.874 19.545 5.874h.003c6.202 0 13.343-1.106 21.246-3.198.2-1.281.513-2.734.931-4.354z"/><path d="m216.705 276.178c9.731-8.029 19.559-16.469 29.368-25.264.686-.615 1.354-1.227 2.035-1.84l-1.383-4.152c-1.109 1.003-2.205 2.006-3.324 3.009-11.035 9.896-22.086 19.345-32.979 28.247z"/><path d="m245.027 276.178h6.193c1.529-1.309 3.055-2.639 4.582-3.967l-1.367-4.111c-3.13 2.734-6.269 5.42-9.408 8.078z"/><path d="m359.955 93.372c-2.334-1.974-5.645-2.975-9.84-2.975-27.695 0-97.852 44.89-166.81 106.738-69.68 62.492-118.093 123.5-117.729 148.362.06 3.99 1.35 7.081 3.838 9.186 2.333 1.974 5.642 2.974 9.836 2.974 4.849 0 11.024-1.404 18.244-4.007l1.654-4.767c-7.989 3.103-14.734 4.768-19.898 4.768-3.222 0-5.661-.682-7.25-2.026-1.586-1.342-2.376-3.366-2.42-6.186-.34-23.411 48.614-84.526 116.398-145.32 68.296-61.256 137.328-105.716 164.136-105.716 3.223 0 5.662.682 7.254 2.028 1.586 1.342 2.379 3.364 2.42 6.184.256 17.519-27.096 56.156-69.285 99.97l1.484 4.261c44.094-45.511 72.082-85.371 71.805-104.29-.056-3.991-1.349-7.08-3.837-9.184z"/><path d="m194.793 320.052h-6.968c-9.921 6.827-19.656 13.112-29.091 18.786l-1.836 5.66c12.206-7.172 24.914-15.357 37.895-24.446z"/></g><path d="m185.595 275.525c.272.223.541.433.81.652h36.71c-7.885-6.021-15.883-12.327-23.946-18.906-4.107-3.352-8.136-6.709-12.115-10.064l-7.701 23.15c2.07 1.726 4.14 3.452 6.242 5.168z" fill="#00bdeb"/><path d="m270.375 320.052h-24.373c10.525 6.925 20.781 13.209 30.68 18.851z" fill="#00bdeb"/><path d="m250.055 169.366c-94.496-77.107-185.56-115.849-203.393-86.512-13.71 22.533 19.841 78.692 78.971 138.477l15.313-15.601c-49.839-48.416-79.701-90.502-71.308-104.3 11.295-18.567 87.53 21.131 170.285 88.655 82.76 67.534 140.697 137.32 129.402 155.885-3.592 5.904-13.77 5.896-28.617.994l5.549 15.916c.834 2.495 1.508 4.727 2.041 6.725 20.094 4.508 34.531 2.401 40.564-7.521 17.841-29.33-44.315-115.613-138.807-192.718z" fill="#00bdeb"/><g fill="#0094cc"><path d="m220.668 276.178h6.59c-8.705-6.6-17.526-13.529-26.385-20.756-4.43-3.615-8.733-7.205-12.965-10.777l-1.358 4.082c3.909 3.299 7.84 6.574 11.792 9.799 7.478 6.101 14.935 11.987 22.326 17.652z"/><path d="m277.451 341.203-1.979-5.913c-8.082-4.674-16.375-9.765-24.813-15.238h-7.471c11.748 7.811 23.216 14.89 34.263 21.151z"/><path d="m184.039 276.178h6.359c-1.034-.834-2.066-1.658-3.1-2.5-2.39-1.951-4.748-3.912-7.095-5.873l-1.358 4.074c1.725 1.434 3.447 2.869 5.194 4.299z"/><path d="m251.889 167.474c-72.039-58.783-143.5-96.766-182.056-96.766-11.792 0-19.974 3.623-24.315 10.765-14.373 23.621 18.814 80.109 79.147 140.931l2.824-2.877c-58.444-58.974-91.819-114.165-78.549-135.973 3.564-5.866 10.594-8.839 20.893-8.839 37.11 0 109.253 38.523 179.524 95.862 93.604 76.378 155.672 161.669 138.359 190.126-3.566 5.861-10.59 8.835-20.881 8.835-.002 0-.006 0-.006 0-5.617-.001-12.053-.897-19.148-2.596.48 1.613.867 3.063 1.188 4.41 6.561 1.427 12.592 2.19 17.961 2.19h.006c11.785 0 19.961-3.619 24.305-10.76 18.621-30.608-42.545-116.398-139.252-195.308z"/><path d="m241.756 188.191c-67.594-55.154-133.705-93.675-160.772-93.675-6.055 0-10.257 1.862-12.49 5.532-9.706 15.954 23.976 60.319 71.599 106.641l2.714-2.763c-51.548-50.067-78.007-90.096-70.89-101.797 1.456-2.393 4.507-3.606 9.067-3.606 26.225 0 91.296 38.149 158.241 92.771 88.826 72.486 138.393 137.783 128.957 153.293-1.457 2.394-4.508 3.606-9.07 3.606-5.063 0-11.582-1.435-19.27-4.119l1.631 4.673c6.936 2.247 12.898 3.453 17.639 3.453 6.057 0 10.26-1.861 12.492-5.532 13.365-21.965-55.526-97.826-129.848-158.477z"/></g><path d="m63.558 184.584c-8.66-17.291-1.668-38.327 15.62-46.99 17.291-8.666 38.33-1.668 46.993 15.617 8.662 17.291 1.67 38.33-15.617 46.992-17.292 8.664-38.333 1.669-46.996-15.619z" fill="#00bdeb"/><path d="m330.031 131.266c-18.125 12.936-43.295 8.728-56.227-9.396-12.936-18.116-8.725-43.29 9.395-56.223s43.295-8.722 56.225 9.399c12.931 18.119 8.722 43.293-9.393 56.22z" fill="#00bdeb"/><path d="m322.238 121.768h-32.82v-6.417l15.148-17.133c2.262-2.665 3.867-4.922 4.82-6.77.955-1.847 1.43-3.542 1.43-5.088 0-2.016-.502-3.629-1.514-4.838-1.004-1.209-2.518-1.814-4.533-1.814-2.127 0-3.773.774-4.939 2.32-1.164 1.543-1.746 3.504-1.746 5.878h-9.541l-.066-.204c-.111-4.344 1.322-8.022 4.299-11.035 2.979-3.012 6.977-4.518 11.994-4.518s8.912 1.282 11.689 3.847c2.775 2.564 4.166 6.006 4.166 10.328 0 2.937-.779 5.612-2.336 8.03s-4.238 5.767-8.047 10.045l-8.063 9.673.072.168h19.986v7.528z" fill="#fff"/><g fill="#0094cc"><path d="m94.884 135.841c12.588 0 23.908 6.985 29.545 18.23 5.712 11.401 4.158 24.557-2.866 34.225l3.167 2.893c8.291-10.896 9.814-25.868 3.279-38.914-6.318-12.608-19.01-20.44-33.125-20.44-5.677 0-11.146 1.291-16.269 3.807l2.024 3.48c4.496-2.159 9.279-3.281 14.245-3.281z"/><path d="m108.301 199.1c-4.148 1.801-8.826 2.78-13.354 2.78-.003 0-.003 0-.003 0-12.591 0-23.913-6.987-29.547-18.23-5.802-11.588-4.175-24.994 3.143-34.702l-2.347-3.39c-8.91 10.954-11.1 26.462-4.376 39.886 6.318 12.607 19.01 20.441 33.127 20.441h.003c5.539 0 10.88-1.249 15.895-3.646z"/><path d="m346.699 90.571-3.607.608c.857 4.435 1.018 9.23.252 13.82-1.688 10.092-7.201 18.921-15.527 24.864-6.539 4.666-14.221 7.131-22.221 7.131-10.955 0-21.74-4.801-28.961-12.87l-3.086 2.043c7.996 9.345 19.625 14.832 32.047 14.832 8.84 0 17.328-2.723 24.547-7.876 9.197-6.563 15.287-16.316 17.15-27.463.852-5.094.367-10.168-.594-15.089z"/><path d="m267.736 92.459c1.688-10.092 7.201-18.923 15.529-24.868 6.533-4.663 14.217-7.128 22.217-7.128 12.219 0 23.738 5.875 30.934 15.712l4.127-1.069c-.201-.299-.371-.614-.584-.909-7.926-11.109-20.813-17.74-34.477-17.74-8.84 0-17.326 2.722-24.541 7.874-9.201 6.566-15.291 16.321-17.154 27.468-1.109 6.638-.604 13.285 1.342 19.527l3.545-2.172c-1.516-5.365-1.883-11.033-.938-16.695z"/></g></svg>
